<svg width="18" height="5" viewBox="0 0 18 5" fill="none" xmlns="http://www.w3.org/2000/svg">
<path d="M1.73103 0.861084C2.28757 0.861084 2.71726 1.02068 3.02009 1.33988C3.32292 1.65089 3.47433 2.04375 3.47433 2.51845C3.47433 2.98497 3.32292 3.37373 3.02009 3.68474C2.71726 3.98757 2.28757 4.13898 1.73103 4.13898C1.19903 4.13898 0.77753 3.98757 0.466518 3.68474C0.155506 3.38192 0 2.99315 0 2.51845C0 2.04375 0.151414 1.65089 0.454241 1.33988C0.757068 1.02068 1.18266 0.861084 1.73103 0.861084Z" fill="#3481DB"/>
<path d="M8.98906 0.861084C9.54561 0.861084 9.9753 1.02068 10.2781 1.33988C10.581 1.65089 10.7324 2.04375 10.7324 2.51845C10.7324 2.98497 10.581 3.37373 10.2781 3.68474C9.9753 3.98757 9.54561 4.13898 8.98906 4.13898C8.45707 4.13898 8.03557 3.98757 7.72455 3.68474C7.41354 3.38192 7.25804 2.99315 7.25804 2.51845C7.25804 2.04375 7.40945 1.65089 7.71228 1.33988C8.01511 1.02068 8.4407 0.861084 8.98906 0.861084Z" fill="#3481DB"/>
<path d="M16.2471 0.861084C16.8036 0.861084 17.2333 1.02068 17.5362 1.33988C17.839 1.65089 17.9904 2.04375 17.9904 2.51845C17.9904 2.98497 17.839 3.37373 17.5362 3.68474C17.2333 3.98757 16.8036 4.13898 16.2471 4.13898C15.7151 4.13898 15.2936 3.98757 14.9826 3.68474C14.6716 3.38192 14.5161 2.99315 14.5161 2.51845C14.5161 2.04375 14.6675 1.65089 14.9703 1.33988C15.2731 1.02068 15.6987 0.861084 16.2471 0.861084Z" fill="#3481DB"/>
</svg>
