<svg width="18" height="5" viewBox="0 0 18 5" fill="none" xmlns="http://www.w3.org/2000/svg">
<path d="M1.73103 0.861023C2.28757 0.861023 2.71726 1.02062 3.02009 1.33982C3.32292 1.65083 3.47433 2.04369 3.47433 2.51839C3.47433 2.98491 3.32292 3.37367 3.02009 3.68468C2.71726 3.98751 2.28757 4.13892 1.73103 4.13892C1.19903 4.13892 0.77753 3.98751 0.466518 3.68468C0.155506 3.38186 0 2.99309 0 2.51839C0 2.04369 0.151414 1.65083 0.454241 1.33982C0.757068 1.02062 1.18266 0.861023 1.73103 0.861023Z" fill="#D9D9D9"/>
<path d="M8.98906 0.861023C9.54561 0.861023 9.9753 1.02062 10.2781 1.33982C10.581 1.65083 10.7324 2.04369 10.7324 2.51839C10.7324 2.98491 10.581 3.37367 10.2781 3.68468C9.9753 3.98751 9.54561 4.13892 8.98906 4.13892C8.45707 4.13892 8.03557 3.98751 7.72455 3.68468C7.41354 3.38186 7.25804 2.99309 7.25804 2.51839C7.25804 2.04369 7.40945 1.65083 7.71228 1.33982C8.01511 1.02062 8.4407 0.861023 8.98906 0.861023Z" fill="#D9D9D9"/>
<path d="M16.2471 0.861023C16.8036 0.861023 17.2333 1.02062 17.5362 1.33982C17.839 1.65083 17.9904 2.04369 17.9904 2.51839C17.9904 2.98491 17.839 3.37367 17.5362 3.68468C17.2333 3.98751 16.8036 4.13892 16.2471 4.13892C15.7151 4.13892 15.2936 3.98751 14.9826 3.68468C14.6716 3.38186 14.5161 2.99309 14.5161 2.51839C14.5161 2.04369 14.6675 1.65083 14.9703 1.33982C15.2731 1.02062 15.6987 0.861023 16.2471 0.861023Z" fill="#D9D9D9"/>
</svg>
