<svg width="19" height="9" viewBox="0 0 19 9" fill="none" xmlns="http://www.w3.org/2000/svg">
<path d="M14.5067 0.00341797C13.4361 0.00341797 12.4249 0.419775 11.7038 1.14096L6.47699 5.78037C6.00115 6.25621 5.36918 6.51643 4.6926 6.51643C3.30227 6.51643 2.17216 5.39375 2.17216 4.00342C2.17216 2.61308 3.30227 1.49041 4.6926 1.49041C5.36918 1.49041 6.00115 1.75063 6.50673 2.25621L7.34688 2.9997L8.46956 2.00342L7.53275 1.17814C6.77439 0.419775 5.76324 0.00341797 4.6926 0.00341797C2.47699 0.00341797 0.677734 1.80267 0.677734 4.00342C0.677734 6.20416 2.47699 8.00342 4.6926 8.00342C5.76324 8.00342 6.77439 7.58706 7.49558 6.86587L12.7223 2.22647C13.1982 1.75063 13.8302 1.49041 14.5067 1.49041C15.8971 1.49041 17.0272 2.61308 17.0272 4.00342C17.0272 5.39375 15.8971 6.51643 14.5067 6.51643C13.8376 6.51643 13.1982 6.25621 12.6926 5.75063L11.845 4.9997L10.7223 5.99598L11.6666 6.8287C12.4249 7.57963 13.4287 7.99598 14.5067 7.99598C16.7223 7.99598 18.5216 6.20416 18.5216 3.99598C18.5216 1.7878 16.7223 0.00341797 14.5067 0.00341797V0.00341797Z" fill="black"/>
</svg>
