<svg width="25" height="25" viewBox="0 0 25 25" fill="none" xmlns="http://www.w3.org/2000/svg">
<g id="subdirectory_arrow_left_24px">
<g id="Group 352">
<path id="Ellipse 18 (Stroke)" fill-rule="evenodd" clip-rule="evenodd" d="M11.8131 17.5421C15.34 17.5421 18.1991 14.683 18.1991 11.1561C18.1991 7.6292 15.34 4.77009 11.8131 4.77009C8.28618 4.77009 5.42707 7.6292 5.42707 11.1561C5.42707 14.683 8.28618 17.5421 11.8131 17.5421ZM11.8131 19.7426C16.5553 19.7426 20.3996 15.8983 20.3996 11.1561C20.3996 6.41389 16.5553 2.56958 11.8131 2.56958C7.07087 2.56958 3.22656 6.41389 3.22656 11.1561C3.22656 15.8983 7.07087 19.7426 11.8131 19.7426Z" fill="#686868"/>
<path id="Line 10 (Stroke)" fill-rule="evenodd" clip-rule="evenodd" d="M20.8282 22.5696L16.0729 17.8143L17.6289 16.2583L22.3842 21.0136L20.8282 22.5696Z" fill="#686868"/>
</g>
</g>
</svg>
