<svg width="35" height="35" viewBox="0 0 35 35" fill="none" xmlns="http://www.w3.org/2000/svg">
<g filter="url(#filter0_d)">
<path fill-rule="evenodd" clip-rule="evenodd" d="M26.6738 15.0034C26.6738 20.5234 22.1938 25.0034 16.6738 25.0034C11.1538 25.0034 6.67383 20.5234 6.67383 15.0034C6.67383 9.48342 11.1538 5.00342 16.6738 5.00342C22.1938 5.00342 26.6738 9.48342 26.6738 15.0034ZM13.6738 17.2534C14.3638 17.2534 14.9238 16.6934 14.9238 16.0034C14.9238 15.3134 14.3638 14.7534 13.6738 14.7534C12.9838 14.7534 12.4238 15.3134 12.4238 16.0034C12.4238 16.6934 12.9838 17.2534 13.6738 17.2534ZM18.4238 16.0034C18.4238 15.3134 18.9838 14.7534 19.6738 14.7534C20.3638 14.7534 20.9238 15.3134 20.9238 16.0034C20.9238 16.6934 20.3638 17.2534 19.6738 17.2534C18.9838 17.2534 18.4238 16.6934 18.4238 16.0034ZM22.1738 11.0034C19.2738 11.0034 16.7338 9.44342 15.3338 7.12342C15.7638 7.05342 16.2138 7.00342 16.6738 7.00342C19.5738 7.00342 22.1138 8.56342 23.5138 10.8834C23.0838 10.9534 22.6338 11.0034 22.1738 11.0034ZM9.09383 12.4734C10.8038 11.5034 12.1238 9.92342 12.7538 8.03342C11.0438 9.00342 9.72383 10.5834 9.09383 12.4734ZM24.3438 12.7634C24.5538 13.4734 24.6738 14.2234 24.6738 15.0034C24.6738 19.4134 21.0838 23.0034 16.6738 23.0034C12.2638 23.0034 8.67383 19.4134 8.67383 15.0034C8.67383 14.9864 8.67499 14.9693 8.67613 14.9527C8.67832 14.9205 8.68042 14.8898 8.67383 14.8634C11.2738 13.8834 13.3638 11.8734 14.4138 9.31342C16.2538 11.5634 19.0438 13.0034 22.1738 13.0034C22.9238 13.0034 23.6438 12.9134 24.3438 12.7634Z" fill="#343434"/>
</g>
<defs>
<filter id="filter0_d" x="0.673828" y="0.00341797" width="34" height="34" filterUnits="userSpaceOnUse" color-interpolation-filters="sRGB">
<feFlood flood-opacity="0" result="BackgroundImageFix"/>
<feColorMatrix in="SourceAlpha" type="matrix" values="0 0 0 0 0 0 0 0 0 0 0 0 0 0 0 0 0 0 127 0"/>
<feOffset dx="1" dy="2"/>
<feGaussianBlur stdDeviation="3.5"/>
<feColorMatrix type="matrix" values="0 0 0 0 0.203922 0 0 0 0 0.203922 0 0 0 0 0.203922 0 0 0 0.29 0"/>
<feBlend mode="normal" in2="BackgroundImageFix" result="effect1_dropShadow"/>
<feBlend mode="normal" in="SourceGraphic" in2="effect1_dropShadow" result="shape"/>
</filter>
</defs>
</svg>
