<svg width="41" height="30" viewBox="0 0 41 30" fill="none" xmlns="http://www.w3.org/2000/svg">
<path fill-rule="evenodd" clip-rule="evenodd" d="M36.844 15C36.844 15.51 36.799 15.99 36.739 16.47L39.904 18.945C40.189 19.17 40.264 19.575 40.084 19.905L37.084 25.095C36.949 25.335 36.694 25.47 36.439 25.47C36.349 25.47 36.259 25.455 36.169 25.425L32.434 23.925C31.654 24.51 30.814 25.02 29.899 25.395L29.329 29.37C29.284 29.73 28.969 30 28.594 30H22.594C22.219 30 21.904 29.73 21.859 29.37L21.289 25.395C20.374 25.02 19.534 24.525 18.754 23.925L15.019 25.425C14.944 25.455 14.854 25.47 14.764 25.47C14.494 25.47 14.239 25.335 14.104 25.095L11.104 19.905C10.924 19.575 10.999 19.17 11.284 18.945L14.449 16.47C14.389 15.99 14.344 15.495 14.344 15C14.344 14.505 14.389 14.01 14.449 13.53L11.284 11.055C10.999 10.83 10.909 10.425 11.104 10.095L14.104 4.905C14.239 4.665 14.494 4.53 14.749 4.53C14.839 4.53 14.929 4.545 15.019 4.575L18.754 6.075C19.534 5.49 20.374 4.98 21.289 4.605L21.859 0.63C21.904 0.27 22.219 0 22.594 0H28.594C28.969 0 29.284 0.27 29.329 0.63L29.899 4.605C30.814 4.98 31.654 5.475 32.434 6.075L36.169 4.575C36.244 4.545 36.334 4.53 36.424 4.53C36.694 4.53 36.949 4.665 37.084 4.905L40.084 10.095C40.264 10.425 40.189 10.83 39.904 11.055L36.739 13.53C36.799 14.01 36.844 14.49 36.844 15ZM33.8415 15.0003C33.8415 14.6853 33.8265 14.3703 33.7665 13.9053L33.5565 12.2103L34.8915 11.1603L36.4965 9.88531L35.4465 8.07031L33.5415 8.83531L31.9515 9.48031L30.5865 8.43031C29.9865 7.98031 29.3865 7.63531 28.7415 7.36531L27.1515 6.72031L26.9115 5.02531L26.6265 3.00031H24.5415L24.2415 5.02531L24.0015 6.72031L22.4115 7.36531C21.7965 7.62031 21.1815 7.98031 20.5365 8.46031L19.1865 9.48031L17.6265 8.85031L15.7215 8.08531L14.6715 9.90031L16.2915 11.1603L17.6265 12.2103L17.4165 13.9053C17.3715 14.3553 17.3415 14.7003 17.3415 15.0003C17.3415 15.3003 17.3715 15.6453 17.4165 16.1103L17.6265 17.8053L16.2915 18.8553L14.6715 20.1153L15.7215 21.9303L17.6265 21.1653L19.2165 20.5203L20.5815 21.5703C21.1815 22.0203 21.7815 22.3653 22.4265 22.6353L24.0165 23.2803L24.2565 24.9753L24.5415 27.0003H26.6415L26.9415 24.9753L27.1815 23.2803L28.7715 22.6353C29.3865 22.3803 30.0015 22.0203 30.6465 21.5403L31.9965 20.5203L33.5565 21.1503L35.4615 21.9153L36.5115 20.1003L34.8915 18.8403L33.5565 17.7903L33.7665 16.0953C33.8115 15.6453 33.8415 15.3153 33.8415 15.0003ZM25.5934 8.99989C22.2784 8.99989 19.5934 11.6849 19.5934 14.9999C19.5934 18.3149 22.2784 20.9999 25.5934 20.9999C28.9084 20.9999 31.5934 18.3149 31.5934 14.9999C31.5934 11.6849 28.9084 8.99989 25.5934 8.99989ZM22.5921 14.9997C22.5921 16.6497 23.9421 17.9997 25.5921 17.9997C27.2421 17.9997 28.5921 16.6497 28.5921 14.9997C28.5921 13.3497 27.2421 11.9997 25.5921 11.9997C23.9421 11.9997 22.5921 13.3497 22.5921 14.9997Z" fill="#343434"/>
<path d="M5 10.4827L0 14.8477L5 19.2128V10.4827Z" fill="black" fill-opacity="0.5"/>
</svg>
