<svg width="42" height="32" viewBox="0 0 42 32" fill="none" xmlns="http://www.w3.org/2000/svg">
<path d="M36.5605 21L41.5605 16L36.5605 11L36.5605 21Z" fill="black" fill-opacity="0.5"/>
<path fill-rule="evenodd" clip-rule="evenodd" d="M29.4999 27.9999V6.99998C29.4999 5.34999 28.1499 3.99999 26.4999 3.99999H24.9999V1H21.9999V3.99999H9.99998V1H6.99999V3.99999H5.49999C3.835 3.99999 2.515 5.34999 2.515 6.99998L2.5 27.9999C2.5 29.6499 3.835 30.9999 5.49999 30.9999H26.4999C28.1499 30.9999 29.4999 29.6499 29.4999 27.9999ZM11.5002 14.5H8.50017V17.5H11.5002V14.5ZM5.49981 9.99988H26.4998V6.99989H5.49981V9.99988ZM26.4998 13.0001V28H5.49981V13.0001H26.4998ZM23.4999 17.5V14.5H20.5V17.5H23.4999ZM17.4998 17.5H14.4998V14.5H17.4998V17.5Z" fill="#343434"/>
</svg>
