<svg width="51" height="41" viewBox="0 0 51 41" fill="none" xmlns="http://www.w3.org/2000/svg">
<path fill-rule="evenodd" clip-rule="evenodd" d="M20.9961 0.0446777C9.94609 0.0446777 0.996094 8.99468 0.996094 20.0447C0.996094 31.0947 9.94609 40.0447 20.9961 40.0447C32.0461 40.0447 40.9961 31.0947 40.9961 20.0447C40.9961 8.99468 32.0461 0.0446777 20.9961 0.0446777ZM45.9984 7.54421H50.9984V20.0442H45.9984V7.54421ZM5.99273 20.0444C5.99273 28.3194 12.7177 35.0444 20.9927 35.0444C29.2677 35.0444 35.9927 28.3194 35.9927 20.0444C35.9927 11.7694 29.2677 5.04436 20.9927 5.04436C12.7177 5.04436 5.99273 11.7694 5.99273 20.0444ZM45.9984 25.0441H50.9984V30.0441H45.9984V25.0441ZM15.9941 20.0453C15.9941 17.2953 18.2441 15.0453 20.9941 15.0453C23.7441 15.0453 25.9941 17.2953 25.9941 20.0453C25.9941 22.7953 23.7441 25.0453 20.9941 25.0453C18.2441 25.0453 15.9941 22.7953 15.9941 20.0453Z" fill="#FF887C"/>
</svg>
