<svg width="21" height="20" viewBox="0 0 21 20" fill="none" xmlns="http://www.w3.org/2000/svg">
<path fill-rule="evenodd" clip-rule="evenodd" d="M10.8269 0C5.3069 0 0.826904 4.48 0.826904 10C0.826904 15.52 5.3069 20 10.8269 20C16.3469 20 20.8269 15.52 20.8269 10C20.8269 4.48 16.3469 0 10.8269 0ZM10.8269 18C6.4069 18 2.8269 14.42 2.8269 10C2.8269 8.15 3.4569 6.45 4.5169 5.1L15.7269 16.31C14.3769 17.37 12.6769 18 10.8269 18ZM5.9269 3.69L17.1369 14.9C18.1969 13.55 18.8269 11.85 18.8269 10C18.8269 5.58 15.2469 2 10.8269 2C8.9769 2 7.2769 2.63 5.9269 3.69Z" fill="#FF887C"/>
</svg>
